<svg width="960" height="520" viewBox="0 0 960 520" fill="none" xmlns="http://www.w3.org/2000/svg">
  <rect width="960" height="520" rx="28" fill="#F8FBFF"/>
  <rect x="36" y="36" width="888" height="448" rx="24" fill="white" stroke="#D9E0EE" stroke-width="2"/>
  <text x="72" y="96" fill="#172033" font-size="34" font-family="Avenir Next, Noto Sans TC, sans-serif" font-weight="700">爬樓梯 DP 狀態轉移</text>
  <text x="72" y="136" fill="#536076" font-size="20" font-family="Avenir Next, Noto Sans TC, sans-serif">dp[i] = 到第 i 階的方法數，每一步可以從前 1 階或前 2 階走上來</text>
  <rect x="96" y="312" width="120" height="104" rx="18" fill="#EAF1FF" stroke="#2155D6" stroke-width="2"/>
  <rect x="246" y="272" width="120" height="144" rx="18" fill="#EAF1FF" stroke="#2155D6" stroke-width="2"/>
  <rect x="396" y="232" width="120" height="184" rx="18" fill="#EAF1FF" stroke="#2155D6" stroke-width="2"/>
  <rect x="546" y="192" width="120" height="224" rx="18" fill="#EAF1FF" stroke="#2155D6" stroke-width="2"/>
  <rect x="696" y="152" width="120" height="264" rx="18" fill="#DBF5E8" stroke="#067647" stroke-width="2"/>
  <text x="144" y="358" text-anchor="middle" fill="#172033" font-size="22" font-family="Avenir Next, Noto Sans TC, sans-serif" font-weight="700">dp[1]</text>
  <text x="144" y="386" text-anchor="middle" fill="#2155D6" font-size="28" font-family="SFMono-Regular, monospace">1</text>
  <text x="294" y="338" text-anchor="middle" fill="#172033" font-size="22" font-family="Avenir Next, Noto Sans TC, sans-serif" font-weight="700">dp[2]</text>
  <text x="294" y="366" text-anchor="middle" fill="#2155D6" font-size="28" font-family="SFMono-Regular, monospace">2</text>
  <text x="444" y="318" text-anchor="middle" fill="#172033" font-size="22" font-family="Avenir Next, Noto Sans TC, sans-serif" font-weight="700">dp[3]</text>
  <text x="444" y="346" text-anchor="middle" fill="#2155D6" font-size="28" font-family="SFMono-Regular, monospace">3</text>
  <text x="594" y="298" text-anchor="middle" fill="#172033" font-size="22" font-family="Avenir Next, Noto Sans TC, sans-serif" font-weight="700">dp[4]</text>
  <text x="594" y="326" text-anchor="middle" fill="#2155D6" font-size="28" font-family="SFMono-Regular, monospace">5</text>
  <text x="756" y="278" text-anchor="middle" fill="#172033" font-size="22" font-family="Avenir Next, Noto Sans TC, sans-serif" font-weight="700">dp[5]</text>
  <text x="756" y="306" text-anchor="middle" fill="#067647" font-size="28" font-family="SFMono-Regular, monospace">8</text>
  <path d="M328 218C360 188 386 188 418 218" stroke="#2155D6" stroke-width="4" stroke-linecap="round"/>
  <path d="M478 178C510 148 536 148 568 178" stroke="#2155D6" stroke-width="4" stroke-linecap="round"/>
  <path d="M628 138C660 108 686 108 718 138" stroke="#067647" stroke-width="4" stroke-linecap="round"/>
  <path d="M178 234C242 170 338 170 402 234" stroke="#7C8DB5" stroke-width="4" stroke-linecap="round" stroke-dasharray="8 10"/>
  <path d="M328 194C392 130 488 130 552 194" stroke="#7C8DB5" stroke-width="4" stroke-linecap="round" stroke-dasharray="8 10"/>
  <path d="M478 154C542 90 638 90 702 154" stroke="#7C8DB5" stroke-width="4" stroke-linecap="round" stroke-dasharray="8 10"/>
  <text x="744" y="110" fill="#067647" font-size="24" font-family="Avenir Next, Noto Sans TC, sans-serif" font-weight="700">dp[5] = dp[4] + dp[3]</text>
  <text x="744" y="142" fill="#067647" font-size="24" font-family="SFMono-Regular, monospace">8 = 5 + 3</text>
</svg>
